P3
# Created by IrfanView
32 16
255
255 255 0 255 255 0 255 255 0 255 255 0 255 255 0 
255 255 0 255 255 0 255 255 0 255 255 0 255 255 0 
255 255 0 255 255 0 255 255 0 255 255 0 255 255 0 
255 255 0 255 255 0 255 255 0 255 255 0 255 255 0 
255 255 0 255 255 0 255 255 0 255 255 0 255 255 0 
255 255 0 255 255 0 255 255 0 255 255 0 255 255 0 
255 255 0 255 255 0 238 238 0 238 238 0 238 238 0 
238 238 0 238 238 0 238 238 0 238 238 0 238 238 0 
238 238 0 238 238 0 238 238 0 238 238 0 238 238 0 
238 238 0 238 238 0 238 238 0 238 238 0 238 238 0 
238 238 0 238 238 0 238 238 0 238 238 0 238 238 0 
238 238 0 238 238 0 238 238 0 238 238 0 238 238 0 
238 238 0 238 238 0 238 238 0 238 238 0 221 221 0 
221 221 0 221 221 0 221 221 0 221 221 0 221 221 0 
221 221 0 221 221 0 221 221 0 221 221 0 221 221 0 
221 221 0 221 221 0 221 221 0 221 221 0 221 221 0 
221 221 0 221 221 0 221 221 0 221 221 0 221 221 0 
221 221 0 221 221 0 221 221 0 221 221 0 221 221 0 
221 221 0 221 221 0 221 221 0 221 221 0 221 221 0 
221 221 0 204 204 0 204 204 0 204 204 0 204 204 0 
204 204 0 204 204 0 204 204 0 204 204 0 204 204 0 
204 204 0 204 204 0 204 204 0 204 204 0 204 204 0 
204 204 0 204 204 0 204 204 0 204 204 0 204 204 0 
204 204 0 204 204 0 204 204 0 204 204 0 204 204 0 
204 204 0 204 204 0 204 204 0 204 204 0 204 204 0 
204 204 0 204 204 0 204 204 0 187 187 0 187 187 0 
187 187 0 187 187 0 187 187 0 187 187 0 187 187 0 
187 187 0 187 187 0 187 187 0 187 187 0 187 187 0 
187 187 0 187 187 0 187 187 0 187 187 0 187 187 0 
187 187 0 187 187 0 187 187 0 187 187 0 187 187 0 
187 187 0 187 187 0 187 187 0 187 187 0 187 187 0 
187 187 0 187 187 0 187 187 0 187 187 0 187 187 0 
170 170 0 170 170 0 170 170 0 170 170 0 170 170 0 
170 170 0 170 170 0 170 170 0 170 170 0 170 170 0 
170 170 0 170 170 0 170 170 0 170 170 0 170 170 0 
170 170 0 170 170 0 170 170 0 170 170 0 170 170 0 
170 170 0 170 170 0 170 170 0 170 170 0 170 170 0 
170 170 0 170 170 0 170 170 0 170 170 0 170 170 0 
170 170 0 170 170 0 153 153 0 153 153 0 153 153 0 
153 153 0 153 153 0 153 153 0 153 153 0 153 153 0 
153 153 0 153 153 0 153 153 0 153 153 0 153 153 0 
153 153 0 153 153 0 153 153 0 153 153 0 153 153 0 
153 153 0 153 153 0 153 153 0 153 153 0 153 153 0 
153 153 0 153 153 0 153 153 0 153 153 0 153 153 0 
153 153 0 153 153 0 153 153 0 153 153 0 136 136 0 
136 136 0 136 136 0 136 136 0 136 136 0 136 136 0 
136 136 0 136 136 0 136 136 0 136 136 0 136 136 0 
136 136 0 136 136 0 136 136 0 136 136 0 136 136 0 
136 136 0 136 136 0 136 136 0 136 136 0 136 136 0 
136 136 0 136 136 0 136 136 0 136 136 0 136 136 0 
136 136 0 136 136 0 136 136 0 136 136 0 136 136 0 
136 136 0 119 119 0 119 119 0 119 119 0 119 119 0 
119 119 0 119 119 0 119 119 0 119 119 0 119 119 0 
119 119 0 119 119 0 119 119 0 119 119 0 119 119 0 
119 119 0 119 119 0 119 119 0 119 119 0 119 119 0 
119 119 0 119 119 0 119 119 0 119 119 0 119 119 0 
119 119 0 119 119 0 119 119 0 119 119 0 119 119 0 
119 119 0 119 119 0 119 119 0 102 102 0 102 102 0 
102 102 0 102 102 0 102 102 0 102 102 0 102 102 0 
102 102 0 102 102 0 102 102 0 102 102 0 102 102 0 
102 102 0 102 102 0 102 102 0 102 102 0 102 102 0 
102 102 0 102 102 0 102 102 0 102 102 0 102 102 0 
102 102 0 102 102 0 102 102 0 102 102 0 102 102 0 
102 102 0 102 102 0 102 102 0 102 102 0 102 102 0 
85 85 0 85 85 0 85 85 0 85 85 0 85 85 0 
85 85 0 85 85 0 85 85 0 85 85 0 85 85 0 
85 85 0 85 85 0 85 85 0 85 85 0 85 85 0 
85 85 0 85 85 0 85 85 0 85 85 0 85 85 0 
85 85 0 85 85 0 85 85 0 85 85 0 85 85 0 
85 85 0 85 85 0 85 85 0 85 85 0 85 85 0 
85 85 0 85 85 0 68 68 0 68 68 0 68 68 0 
68 68 0 68 68 0 68 68 0 68 68 0 68 68 0 
68 68 0 68 68 0 68 68 0 68 68 0 68 68 0 
68 68 0 68 68 0 68 68 0 68 68 0 68 68 0 
68 68 0 68 68 0 68 68 0 68 68 0 68 68 0 
68 68 0 68 68 0 68 68 0 68 68 0 68 68 0 
68 68 0 68 68 0 68 68 0 68 68 0 51 51 0 
51 51 0 51 51 0 51 51 0 51 51 0 51 51 0 
51 51 0 51 51 0 51 51 0 51 51 0 51 51 0 
51 51 0 51 51 0 51 51 0 51 51 0 51 51 0 
51 51 0 51 51 0 51 51 0 51 51 0 51 51 0 
51 51 0 51 51 0 51 51 0 51 51 0 51 51 0 
51 51 0 51 51 0 51 51 0 51 51 0 51 51 0 
51 51 0 34 34 0 34 34 0 34 34 0 34 34 0 
34 34 0 34 34 0 34 34 0 34 34 0 34 34 0 
34 34 0 34 34 0 34 34 0 34 34 0 34 34 0 
34 34 0 34 34 0 34 34 0 34 34 0 34 34 0 
34 34 0 34 34 0 34 34 0 34 34 0 34 34 0 
34 34 0 34 34 0 34 34 0 34 34 0 34 34 0 
34 34 0 34 34 0 34 34 0 17 17 0 17 17 0 
17 17 0 17 17 0 17 17 0 17 17 0 17 17 0 
17 17 0 17 17 0 17 17 0 17 17 0 17 17 0 
17 17 0 17 17 0 17 17 0 17 17 0 17 17 0 
17 17 0 17 17 0 17 17 0 17 17 0 17 17 0 
17 17 0 17 17 0 17 17 0 17 17 0 17 17 0 
17 17 0 17 17 0 17 17 0 17 17 0 17 17 0 
0 0 0 0 0 0 0 0 0 0 0 0 0 0 0 
0 0 0 0 0 0 0 0 0 0 0 0 0 0 0 
0 0 0 0 0 0 0 0 0 0 0 0 0 0 0 
0 0 0 0 0 0 0 0 0 0 0 0 0 0 0 
0 0 0 0 0 0 0 0 0 0 0 0 0 0 0 
0 0 0 0 0 0 0 0 0 0 0 0 0 0 0 
0 0 0 0 0 0 