P3
# Created by IrfanView
64 64
255
255 255 0 255 255 0 255 255 0 255 255 0 255 255 0 
255 255 0 255 255 0 255 255 0 255 255 0 255 255 0 
255 255 0 255 255 0 255 255 0 255 255 0 255 255 0 
255 255 0 255 255 0 255 255 0 255 255 0 255 255 0 
255 255 0 255 255 0 255 255 0 255 255 0 255 255 0 
255 255 0 255 255 0 255 255 0 255 255 0 255 255 0 
255 255 0 255 255 0 255 255 0 255 255 0 255 255 0 
255 255 0 255 255 0 255 255 0 255 255 0 255 255 0 
255 255 0 255 255 0 255 255 0 255 255 0 255 255 0 
255 255 0 255 255 0 255 255 0 255 255 0 255 255 0 
255 255 0 255 255 0 255 255 0 255 255 0 255 255 0 
255 255 0 255 255 0 255 255 0 255 255 0 255 255 0 
255 255 0 255 255 0 255 255 0 255 255 0 251 251 0 
251 251 0 251 251 0 251 251 0 251 251 0 251 251 0 
251 251 0 251 251 0 251 251 0 251 251 0 251 251 0 
251 251 0 251 251 0 251 251 0 251 251 0 251 251 0 
251 251 0 251 251 0 251 251 0 251 251 0 251 251 0 
251 251 0 251 251 0 251 251 0 251 251 0 251 251 0 
251 251 0 251 251 0 251 251 0 251 251 0 251 251 0 
251 251 0 251 251 0 251 251 0 251 251 0 251 251 0 
251 251 0 251 251 0 251 251 0 251 251 0 251 251 0 
251 251 0 251 251 0 251 251 0 251 251 0 251 251 0 
251 251 0 251 251 0 251 251 0 251 251 0 251 251 0 
251 251 0 251 251 0 251 251 0 251 251 0 251 251 0 
251 251 0 251 251 0 251 251 0 251 251 0 251 251 0 
251 251 0 251 251 0 251 251 0 247 247 0 247 247 0 
247 247 0 247 247 0 247 247 0 247 247 0 247 247 0 
247 247 0 247 247 0 247 247 0 247 247 0 247 247 0 
247 247 0 247 247 0 247 247 0 247 247 0 247 247 0 
247 247 0 247 247 0 247 247 0 247 247 0 247 247 0 
247 247 0 247 247 0 247 247 0 247 247 0 247 247 0 
247 247 0 247 247 0 247 247 0 247 247 0 247 247 0 
247 247 0 247 247 0 247 247 0 247 247 0 247 247 0 
247 247 0 247 247 0 247 247 0 247 247 0 247 247 0 
247 247 0 247 247 0 247 247 0 247 247 0 247 247 0 
247 247 0 247 247 0 247 247 0 247 247 0 247 247 0 
247 247 0 247 247 0 247 247 0 247 247 0 247 247 0 
247 247 0 247 247 0 247 247 0 247 247 0 247 247 0 
247 247 0 247 247 0 243 243 0 243 243 0 243 243 0 
243 243 0 243 243 0 243 243 0 243 243 0 243 243 0 
243 243 0 243 243 0 243 243 0 243 243 0 243 243 0 
243 243 0 243 243 0 243 243 0 243 243 0 243 243 0 
243 243 0 243 243 0 243 243 0 243 243 0 243 243 0 
243 243 0 243 243 0 243 243 0 243 243 0 243 243 0 
243 243 0 243 243 0 243 243 0 243 243 0 243 243 0 
243 243 0 243 243 0 243 243 0 243 243 0 243 243 0 
243 243 0 243 243 0 243 243 0 243 243 0 243 243 0 
243 243 0 243 243 0 243 243 0 243 243 0 243 243 0 
243 243 0 243 243 0 243 243 0 243 243 0 243 243 0 
243 243 0 243 243 0 243 243 0 243 243 0 243 243 0 
243 243 0 243 243 0 243 243 0 243 243 0 243 243 0 
243 243 0 239 239 0 239 239 0 239 239 0 239 239 0 
239 239 0 239 239 0 239 239 0 239 239 0 239 239 0 
239 239 0 239 239 0 239 239 0 239 239 0 239 239 0 
239 239 0 239 239 0 239 239 0 239 239 0 239 239 0 
239 239 0 239 239 0 239 239 0 239 239 0 239 239 0 
239 239 0 239 239 0 239 239 0 239 239 0 239 239 0 
239 239 0 239 239 0 239 239 0 239 239 0 239 239 0 
239 239 0 239 239 0 239 239 0 239 239 0 239 239 0 
239 239 0 239 239 0 239 239 0 239 239 0 239 239 0 
239 239 0 239 239 0 239 239 0 239 239 0 239 239 0 
239 239 0 239 239 0 239 239 0 239 239 0 239 239 0 
239 239 0 239 239 0 239 239 0 239 239 0 239 239 0 
239 239 0 239 239 0 239 239 0 239 239 0 239 239 0 
235 235 0 235 235 0 235 235 0 235 235 0 235 235 0 
235 235 0 235 235 0 235 235 0 235 235 0 235 235 0 
235 235 0 235 235 0 235 235 0 235 235 0 235 235 0 
235 235 0 235 235 0 235 235 0 235 235 0 235 235 0 
235 235 0 235 235 0 235 235 0 235 235 0 235 235 0 
235 235 0 235 235 0 235 235 0 235 235 0 235 235 0 
235 235 0 235 235 0 235 235 0 235 235 0 235 235 0 
235 235 0 235 235 0 235 235 0 235 235 0 235 235 0 
235 235 0 235 235 0 235 235 0 235 235 0 235 235 0 
235 235 0 235 235 0 235 235 0 235 235 0 235 235 0 
235 235 0 235 235 0 235 235 0 235 235 0 235 235 0 
235 235 0 235 235 0 235 235 0 235 235 0 235 235 0 
235 235 0 235 235 0 235 235 0 235 235 0 231 231 0 
231 231 0 231 231 0 231 231 0 231 231 0 231 231 0 
231 231 0 231 231 0 231 231 0 231 231 0 231 231 0 
231 231 0 231 231 0 231 231 0 231 231 0 231 231 0 
231 231 0 231 231 0 231 231 0 231 231 0 231 231 0 
231 231 0 231 231 0 231 231 0 231 231 0 231 231 0 
231 231 0 231 231 0 231 231 0 231 231 0 231 231 0 
231 231 0 231 231 0 231 231 0 231 231 0 231 231 0 
231 231 0 231 231 0 231 231 0 231 231 0 231 231 0 
231 231 0 231 231 0 231 231 0 231 231 0 231 231 0 
231 231 0 231 231 0 231 231 0 231 231 0 231 231 0 
231 231 0 231 231 0 231 231 0 231 231 0 231 231 0 
231 231 0 231 231 0 231 231 0 231 231 0 231 231 0 
231 231 0 231 231 0 231 231 0 227 227 0 227 227 0 
227 227 0 227 227 0 227 227 0 227 227 0 227 227 0 
227 227 0 227 227 0 227 227 0 227 227 0 227 227 0 
227 227 0 227 227 0 227 227 0 227 227 0 227 227 0 
227 227 0 227 227 0 227 227 0 227 227 0 227 227 0 
227 227 0 227 227 0 227 227 0 227 227 0 227 227 0 
227 227 0 227 227 0 227 227 0 227 227 0 227 227 0 
227 227 0 227 227 0 227 227 0 227 227 0 227 227 0 
227 227 0 227 227 0 227 227 0 227 227 0 227 227 0 
227 227 0 227 227 0 227 227 0 227 227 0 227 227 0 
227 227 0 227 227 0 227 227 0 227 227 0 227 227 0 
227 227 0 227 227 0 227 227 0 227 227 0 227 227 0 
227 227 0 227 227 0 227 227 0 227 227 0 227 227 0 
227 227 0 227 227 0 223 223 0 223 223 0 223 223 0 
223 223 0 223 223 0 223 223 0 223 223 0 223 223 0 
223 223 0 223 223 0 223 223 0 223 223 0 223 223 0 
223 223 0 223 223 0 223 223 0 223 223 0 223 223 0 
223 223 0 223 223 0 223 223 0 223 223 0 223 223 0 
223 223 0 223 223 0 223 223 0 223 223 0 223 223 0 
223 223 0 223 223 0 223 223 0 223 223 0 223 223 0 
223 223 0 223 223 0 223 223 0 223 223 0 223 223 0 
223 223 0 223 223 0 223 223 0 223 223 0 223 223 0 
223 223 0 223 223 0 223 223 0 223 223 0 223 223 0 
223 223 0 223 223 0 223 223 0 223 223 0 223 223 0 
223 223 0 223 223 0 223 223 0 223 223 0 223 223 0 
223 223 0 223 223 0 223 223 0 223 223 0 223 223 0 
223 223 0 219 219 0 219 219 0 219 219 0 219 219 0 
219 219 0 219 219 0 219 219 0 219 219 0 219 219 0 
219 219 0 219 219 0 219 219 0 219 219 0 219 219 0 
219 219 0 219 219 0 219 219 0 219 219 0 219 219 0 
219 219 0 219 219 0 219 219 0 219 219 0 219 219 0 
219 219 0 219 219 0 219 219 0 219 219 0 219 219 0 
219 219 0 219 219 0 219 219 0 219 219 0 219 219 0 
219 219 0 219 219 0 219 219 0 219 219 0 219 219 0 
219 219 0 219 219 0 219 219 0 219 219 0 219 219 0 
219 219 0 219 219 0 219 219 0 219 219 0 219 219 0 
219 219 0 219 219 0 219 219 0 219 219 0 219 219 0 
219 219 0 219 219 0 219 219 0 219 219 0 219 219 0 
219 219 0 219 219 0 219 219 0 219 219 0 219 219 0 
215 215 0 215 215 0 215 215 0 215 215 0 215 215 0 
215 215 0 215 215 0 215 215 0 215 215 0 215 215 0 
215 215 0 215 215 0 215 215 0 215 215 0 215 215 0 
215 215 0 215 215 0 215 215 0 215 215 0 215 215 0 
215 215 0 215 215 0 215 215 0 215 215 0 215 215 0 
215 215 0 215 215 0 215 215 0 215 215 0 215 215 0 
215 215 0 215 215 0 215 215 0 215 215 0 215 215 0 
215 215 0 215 215 0 215 215 0 215 215 0 215 215 0 
215 215 0 215 215 0 215 215 0 215 215 0 215 215 0 
215 215 0 215 215 0 215 215 0 215 215 0 215 215 0 
215 215 0 215 215 0 215 215 0 215 215 0 215 215 0 
215 215 0 215 215 0 215 215 0 215 215 0 215 215 0 
215 215 0 215 215 0 215 215 0 215 215 0 211 211 0 
211 211 0 211 211 0 211 211 0 211 211 0 211 211 0 
211 211 0 211 211 0 211 211 0 211 211 0 211 211 0 
211 211 0 211 211 0 211 211 0 211 211 0 211 211 0 
211 211 0 211 211 0 211 211 0 211 211 0 211 211 0 
211 211 0 211 211 0 211 211 0 211 211 0 211 211 0 
211 211 0 211 211 0 211 211 0 211 211 0 211 211 0 
211 211 0 211 211 0 211 211 0 211 211 0 211 211 0 
211 211 0 211 211 0 211 211 0 211 211 0 211 211 0 
211 211 0 211 211 0 211 211 0 211 211 0 211 211 0 
211 211 0 211 211 0 211 211 0 211 211 0 211 211 0 
211 211 0 211 211 0 211 211 0 211 211 0 211 211 0 
211 211 0 211 211 0 211 211 0 211 211 0 211 211 0 
211 211 0 211 211 0 211 211 0 207 207 0 207 207 0 
207 207 0 207 207 0 207 207 0 207 207 0 207 207 0 
207 207 0 207 207 0 207 207 0 207 207 0 207 207 0 
207 207 0 207 207 0 207 207 0 207 207 0 207 207 0 
207 207 0 207 207 0 207 207 0 207 207 0 207 207 0 
207 207 0 207 207 0 207 207 0 207 207 0 207 207 0 
207 207 0 207 207 0 207 207 0 207 207 0 207 207 0 
207 207 0 207 207 0 207 207 0 207 207 0 207 207 0 
207 207 0 207 207 0 207 207 0 207 207 0 207 207 0 
207 207 0 207 207 0 207 207 0 207 207 0 207 207 0 
207 207 0 207 207 0 207 207 0 207 207 0 207 207 0 
207 207 0 207 207 0 207 207 0 207 207 0 207 207 0 
207 207 0 207 207 0 207 207 0 207 207 0 207 207 0 
207 207 0 207 207 0 203 203 0 203 203 0 203 203 0 
203 203 0 203 203 0 203 203 0 203 203 0 203 203 0 
203 203 0 203 203 0 203 203 0 203 203 0 203 203 0 
203 203 0 203 203 0 203 203 0 203 203 0 203 203 0 
203 203 0 203 203 0 203 203 0 203 203 0 203 203 0 
203 203 0 203 203 0 203 203 0 203 203 0 203 203 0 
203 203 0 203 203 0 203 203 0 203 203 0 203 203 0 
203 203 0 203 203 0 203 203 0 203 203 0 203 203 0 
203 203 0 203 203 0 203 203 0 203 203 0 203 203 0 
203 203 0 203 203 0 203 203 0 203 203 0 203 203 0 
203 203 0 203 203 0 203 203 0 203 203 0 203 203 0 
203 203 0 203 203 0 203 203 0 203 203 0 203 203 0 
203 203 0 203 203 0 203 203 0 203 203 0 203 203 0 
203 203 0 199 199 0 199 199 0 199 199 0 199 199 0 
199 199 0 199 199 0 199 199 0 199 199 0 199 199 0 
199 199 0 199 199 0 199 199 0 199 199 0 199 199 0 
199 199 0 199 199 0 199 199 0 199 199 0 199 199 0 
199 199 0 199 199 0 199 199 0 199 199 0 199 199 0 
199 199 0 199 199 0 199 199 0 199 199 0 199 199 0 
199 199 0 199 199 0 199 199 0 199 199 0 199 199 0 
199 199 0 199 199 0 199 199 0 199 199 0 199 199 0 
199 199 0 199 199 0 199 199 0 199 199 0 199 199 0 
199 199 0 199 199 0 199 199 0 199 199 0 199 199 0 
199 199 0 199 199 0 199 199 0 199 199 0 199 199 0 
199 199 0 199 199 0 199 199 0 199 199 0 199 199 0 
199 199 0 199 199 0 199 199 0 199 199 0 199 199 0 
195 195 0 195 195 0 195 195 0 195 195 0 195 195 0 
195 195 0 195 195 0 195 195 0 195 195 0 195 195 0 
195 195 0 195 195 0 195 195 0 195 195 0 195 195 0 
195 195 0 195 195 0 195 195 0 195 195 0 195 195 0 
195 195 0 195 195 0 195 195 0 195 195 0 195 195 0 
195 195 0 195 195 0 195 195 0 195 195 0 195 195 0 
195 195 0 195 195 0 195 195 0 195 195 0 195 195 0 
195 195 0 195 195 0 195 195 0 195 195 0 195 195 0 
195 195 0 195 195 0 195 195 0 195 195 0 195 195 0 
195 195 0 195 195 0 195 195 0 195 195 0 195 195 0 
195 195 0 195 195 0 195 195 0 195 195 0 195 195 0 
195 195 0 195 195 0 195 195 0 195 195 0 195 195 0 
195 195 0 195 195 0 195 195 0 195 195 0 190 190 0 
190 190 0 190 190 0 190 190 0 190 190 0 190 190 0 
190 190 0 190 190 0 190 190 0 190 190 0 190 190 0 
190 190 0 190 190 0 190 190 0 190 190 0 190 190 0 
190 190 0 190 190 0 190 190 0 190 190 0 190 190 0 
190 190 0 190 190 0 190 190 0 190 190 0 190 190 0 
190 190 0 190 190 0 190 190 0 190 190 0 190 190 0 
190 190 0 190 190 0 190 190 0 190 190 0 190 190 0 
190 190 0 190 190 0 190 190 0 190 190 0 190 190 0 
190 190 0 190 190 0 190 190 0 190 190 0 190 190 0 
190 190 0 190 190 0 190 190 0 190 190 0 190 190 0 
190 190 0 190 190 0 190 190 0 190 190 0 190 190 0 
190 190 0 190 190 0 190 190 0 190 190 0 190 190 0 
190 190 0 190 190 0 190 190 0 186 186 0 186 186 0 
186 186 0 186 186 0 186 186 0 186 186 0 186 186 0 
186 186 0 186 186 0 186 186 0 186 186 0 186 186 0 
186 186 0 186 186 0 186 186 0 186 186 0 186 186 0 
186 186 0 186 186 0 186 186 0 186 186 0 186 186 0 
186 186 0 186 186 0 186 186 0 186 186 0 186 186 0 
186 186 0 186 186 0 186 186 0 186 186 0 186 186 0 
186 186 0 186 186 0 186 186 0 186 186 0 186 186 0 
186 186 0 186 186 0 186 186 0 186 186 0 186 186 0 
186 186 0 186 186 0 186 186 0 186 186 0 186 186 0 
186 186 0 186 186 0 186 186 0 186 186 0 186 186 0 
186 186 0 186 186 0 186 186 0 186 186 0 186 186 0 
186 186 0 186 186 0 186 186 0 186 186 0 186 186 0 
186 186 0 186 186 0 182 182 0 182 182 0 182 182 0 
182 182 0 182 182 0 182 182 0 182 182 0 182 182 0 
182 182 0 182 182 0 182 182 0 182 182 0 182 182 0 
182 182 0 182 182 0 182 182 0 182 182 0 182 182 0 
182 182 0 182 182 0 182 182 0 182 182 0 182 182 0 
182 182 0 182 182 0 182 182 0 182 182 0 182 182 0 
182 182 0 182 182 0 182 182 0 182 182 0 182 182 0 
182 182 0 182 182 0 182 182 0 182 182 0 182 182 0 
182 182 0 182 182 0 182 182 0 182 182 0 182 182 0 
182 182 0 182 182 0 182 182 0 182 182 0 182 182 0 
182 182 0 182 182 0 182 182 0 182 182 0 182 182 0 
182 182 0 182 182 0 182 182 0 182 182 0 182 182 0 
182 182 0 182 182 0 182 182 0 182 182 0 182 182 0 
182 182 0 178 178 0 178 178 0 178 178 0 178 178 0 
178 178 0 178 178 0 178 178 0 178 178 0 178 178 0 
178 178 0 178 178 0 178 178 0 178 178 0 178 178 0 
178 178 0 178 178 0 178 178 0 178 178 0 178 178 0 
178 178 0 178 178 0 178 178 0 178 178 0 178 178 0 
178 178 0 178 178 0 178 178 0 178 178 0 178 178 0 
178 178 0 178 178 0 178 178 0 178 178 0 178 178 0 
178 178 0 178 178 0 178 178 0 178 178 0 178 178 0 
178 178 0 178 178 0 178 178 0 178 178 0 178 178 0 
178 178 0 178 178 0 178 178 0 178 178 0 178 178 0 
178 178 0 178 178 0 178 178 0 178 178 0 178 178 0 
178 178 0 178 178 0 178 178 0 178 178 0 178 178 0 
178 178 0 178 178 0 178 178 0 178 178 0 178 178 0 
174 174 0 174 174 0 174 174 0 174 174 0 174 174 0 
174 174 0 174 174 0 174 174 0 174 174 0 174 174 0 
174 174 0 174 174 0 174 174 0 174 174 0 174 174 0 
174 174 0 174 174 0 174 174 0 174 174 0 174 174 0 
174 174 0 174 174 0 174 174 0 174 174 0 174 174 0 
174 174 0 174 174 0 174 174 0 174 174 0 174 174 0 
174 174 0 174 174 0 174 174 0 174 174 0 174 174 0 
174 174 0 174 174 0 174 174 0 174 174 0 174 174 0 
174 174 0 174 174 0 174 174 0 174 174 0 174 174 0 
174 174 0 174 174 0 174 174 0 174 174 0 174 174 0 
174 174 0 174 174 0 174 174 0 174 174 0 174 174 0 
174 174 0 174 174 0 174 174 0 174 174 0 174 174 0 
174 174 0 174 174 0 174 174 0 174 174 0 170 170 0 
170 170 0 170 170 0 170 170 0 170 170 0 170 170 0 
170 170 0 170 170 0 170 170 0 170 170 0 170 170 0 
170 170 0 170 170 0 170 170 0 170 170 0 170 170 0 
170 170 0 170 170 0 170 170 0 170 170 0 170 170 0 
170 170 0 170 170 0 170 170 0 170 170 0 170 170 0 
170 170 0 170 170 0 170 170 0 170 170 0 170 170 0 
170 170 0 170 170 0 170 170 0 170 170 0 170 170 0 
170 170 0 170 170 0 170 170 0 170 170 0 170 170 0 
170 170 0 170 170 0 170 170 0 170 170 0 170 170 0 
170 170 0 170 170 0 170 170 0 170 170 0 170 170 0 
170 170 0 170 170 0 170 170 0 170 170 0 170 170 0 
170 170 0 170 170 0 170 170 0 170 170 0 170 170 0 
170 170 0 170 170 0 170 170 0 166 166 0 166 166 0 
166 166 0 166 166 0 166 166 0 166 166 0 166 166 0 
166 166 0 166 166 0 166 166 0 166 166 0 166 166 0 
166 166 0 166 166 0 166 166 0 166 166 0 166 166 0 
166 166 0 166 166 0 166 166 0 166 166 0 166 166 0 
166 166 0 166 166 0 166 166 0 166 166 0 166 166 0 
166 166 0 166 166 0 166 166 0 166 166 0 166 166 0 
166 166 0 166 166 0 166 166 0 166 166 0 166 166 0 
166 166 0 166 166 0 166 166 0 166 166 0 166 166 0 
166 166 0 166 166 0 166 166 0 166 166 0 166 166 0 
166 166 0 166 166 0 166 166 0 166 166 0 166 166 0 
166 166 0 166 166 0 166 166 0 166 166 0 166 166 0 
166 166 0 166 166 0 166 166 0 166 166 0 166 166 0 
166 166 0 166 166 0 162 162 0 162 162 0 162 162 0 
162 162 0 162 162 0 162 162 0 162 162 0 162 162 0 
162 162 0 162 162 0 162 162 0 162 162 0 162 162 0 
162 162 0 162 162 0 162 162 0 162 162 0 162 162 0 
162 162 0 162 162 0 162 162 0 162 162 0 162 162 0 
162 162 0 162 162 0 162 162 0 162 162 0 162 162 0 
162 162 0 162 162 0 162 162 0 162 162 0 162 162 0 
162 162 0 162 162 0 162 162 0 162 162 0 162 162 0 
162 162 0 162 162 0 162 162 0 162 162 0 162 162 0 
162 162 0 162 162 0 162 162 0 162 162 0 162 162 0 
162 162 0 162 162 0 162 162 0 162 162 0 162 162 0 
162 162 0 162 162 0 162 162 0 162 162 0 162 162 0 
162 162 0 162 162 0 162 162 0 162 162 0 162 162 0 
162 162 0 158 158 0 158 158 0 158 158 0 158 158 0 
158 158 0 158 158 0 158 158 0 158 158 0 158 158 0 
158 158 0 158 158 0 158 158 0 158 158 0 158 158 0 
158 158 0 158 158 0 158 158 0 158 158 0 158 158 0 
158 158 0 158 158 0 158 158 0 158 158 0 158 158 0 
158 158 0 158 158 0 158 158 0 158 158 0 158 158 0 
158 158 0 158 158 0 158 158 0 158 158 0 158 158 0 
158 158 0 158 158 0 158 158 0 158 158 0 158 158 0 
158 158 0 158 158 0 158 158 0 158 158 0 158 158 0 
158 158 0 158 158 0 158 158 0 158 158 0 158 158 0 
158 158 0 158 158 0 158 158 0 158 158 0 158 158 0 
158 158 0 158 158 0 158 158 0 158 158 0 158 158 0 
158 158 0 158 158 0 158 158 0 158 158 0 158 158 0 
154 154 0 154 154 0 154 154 0 154 154 0 154 154 0 
154 154 0 154 154 0 154 154 0 154 154 0 154 154 0 
154 154 0 154 154 0 154 154 0 154 154 0 154 154 0 
154 154 0 154 154 0 154 154 0 154 154 0 154 154 0 
154 154 0 154 154 0 154 154 0 154 154 0 154 154 0 
154 154 0 154 154 0 154 154 0 154 154 0 154 154 0 
154 154 0 154 154 0 154 154 0 154 154 0 154 154 0 
154 154 0 154 154 0 154 154 0 154 154 0 154 154 0 
154 154 0 154 154 0 154 154 0 154 154 0 154 154 0 
154 154 0 154 154 0 154 154 0 154 154 0 154 154 0 
154 154 0 154 154 0 154 154 0 154 154 0 154 154 0 
154 154 0 154 154 0 154 154 0 154 154 0 154 154 0 
154 154 0 154 154 0 154 154 0 154 154 0 150 150 0 
150 150 0 150 150 0 150 150 0 150 150 0 150 150 0 
150 150 0 150 150 0 150 150 0 150 150 0 150 150 0 
150 150 0 150 150 0 150 150 0 150 150 0 150 150 0 
150 150 0 150 150 0 150 150 0 150 150 0 150 150 0 
150 150 0 150 150 0 150 150 0 150 150 0 150 150 0 
150 150 0 150 150 0 150 150 0 150 150 0 150 150 0 
150 150 0 150 150 0 150 150 0 150 150 0 150 150 0 
150 150 0 150 150 0 150 150 0 150 150 0 150 150 0 
150 150 0 150 150 0 150 150 0 150 150 0 150 150 0 
150 150 0 150 150 0 150 150 0 150 150 0 150 150 0 
150 150 0 150 150 0 150 150 0 150 150 0 150 150 0 
150 150 0 150 150 0 150 150 0 150 150 0 150 150 0 
150 150 0 150 150 0 150 150 0 146 146 0 146 146 0 
146 146 0 146 146 0 146 146 0 146 146 0 146 146 0 
146 146 0 146 146 0 146 146 0 146 146 0 146 146 0 
146 146 0 146 146 0 146 146 0 146 146 0 146 146 0 
146 146 0 146 146 0 146 146 0 146 146 0 146 146 0 
146 146 0 146 146 0 146 146 0 146 146 0 146 146 0 
146 146 0 146 146 0 146 146 0 146 146 0 146 146 0 
146 146 0 146 146 0 146 146 0 146 146 0 146 146 0 
146 146 0 146 146 0 146 146 0 146 146 0 146 146 0 
146 146 0 146 146 0 146 146 0 146 146 0 146 146 0 
146 146 0 146 146 0 146 146 0 146 146 0 146 146 0 
146 146 0 146 146 0 146 146 0 146 146 0 146 146 0 
146 146 0 146 146 0 146 146 0 146 146 0 146 146 0 
146 146 0 146 146 0 142 142 0 142 142 0 142 142 0 
142 142 0 142 142 0 142 142 0 142 142 0 142 142 0 
142 142 0 142 142 0 142 142 0 142 142 0 142 142 0 
142 142 0 142 142 0 142 142 0 142 142 0 142 142 0 
142 142 0 142 142 0 142 142 0 142 142 0 142 142 0 
142 142 0 142 142 0 142 142 0 142 142 0 142 142 0 
142 142 0 142 142 0 142 142 0 142 142 0 142 142 0 
142 142 0 142 142 0 142 142 0 142 142 0 142 142 0 
142 142 0 142 142 0 142 142 0 142 142 0 142 142 0 
142 142 0 142 142 0 142 142 0 142 142 0 142 142 0 
142 142 0 142 142 0 142 142 0 142 142 0 142 142 0 
142 142 0 142 142 0 142 142 0 142 142 0 142 142 0 
142 142 0 142 142 0 142 142 0 142 142 0 142 142 0 
142 142 0 138 138 0 138 138 0 138 138 0 138 138 0 
138 138 0 138 138 0 138 138 0 138 138 0 138 138 0 
138 138 0 138 138 0 138 138 0 138 138 0 138 138 0 
138 138 0 138 138 0 138 138 0 138 138 0 138 138 0 
138 138 0 138 138 0 138 138 0 138 138 0 138 138 0 
138 138 0 138 138 0 138 138 0 138 138 0 138 138 0 
138 138 0 138 138 0 138 138 0 138 138 0 138 138 0 
138 138 0 138 138 0 138 138 0 138 138 0 138 138 0 
138 138 0 138 138 0 138 138 0 138 138 0 138 138 0 
138 138 0 138 138 0 138 138 0 138 138 0 138 138 0 
138 138 0 138 138 0 138 138 0 138 138 0 138 138 0 
138 138 0 138 138 0 138 138 0 138 138 0 138 138 0 
138 138 0 138 138 0 138 138 0 138 138 0 138 138 0 
134 134 0 134 134 0 134 134 0 134 134 0 134 134 0 
134 134 0 134 134 0 134 134 0 134 134 0 134 134 0 
134 134 0 134 134 0 134 134 0 134 134 0 134 134 0 
134 134 0 134 134 0 134 134 0 134 134 0 134 134 0 
134 134 0 134 134 0 134 134 0 134 134 0 134 134 0 
134 134 0 134 134 0 134 134 0 134 134 0 134 134 0 
134 134 0 134 134 0 134 134 0 134 134 0 134 134 0 
134 134 0 134 134 0 134 134 0 134 134 0 134 134 0 
134 134 0 134 134 0 134 134 0 134 134 0 134 134 0 
134 134 0 134 134 0 134 134 0 134 134 0 134 134 0 
134 134 0 134 134 0 134 134 0 134 134 0 134 134 0 
134 134 0 134 134 0 134 134 0 134 134 0 134 134 0 
134 134 0 134 134 0 134 134 0 134 134 0 130 130 0 
130 130 0 130 130 0 130 130 0 130 130 0 130 130 0 
130 130 0 130 130 0 130 130 0 130 130 0 130 130 0 
130 130 0 130 130 0 130 130 0 130 130 0 130 130 0 
130 130 0 130 130 0 130 130 0 130 130 0 130 130 0 
130 130 0 130 130 0 130 130 0 130 130 0 130 130 0 
130 130 0 130 130 0 130 130 0 130 130 0 130 130 0 
130 130 0 130 130 0 130 130 0 130 130 0 130 130 0 
130 130 0 130 130 0 130 130 0 130 130 0 130 130 0 
130 130 0 130 130 0 130 130 0 130 130 0 130 130 0 
130 130 0 130 130 0 130 130 0 130 130 0 130 130 0 
130 130 0 130 130 0 130 130 0 130 130 0 130 130 0 
130 130 0 130 130 0 130 130 0 130 130 0 130 130 0 
130 130 0 130 130 0 130 130 0 125 125 0 125 125 0 
125 125 0 125 125 0 125 125 0 125 125 0 125 125 0 
125 125 0 125 125 0 125 125 0 125 125 0 125 125 0 
125 125 0 125 125 0 125 125 0 125 125 0 125 125 0 
125 125 0 125 125 0 125 125 0 125 125 0 125 125 0 
125 125 0 125 125 0 125 125 0 125 125 0 125 125 0 
125 125 0 125 125 0 125 125 0 125 125 0 125 125 0 
125 125 0 125 125 0 125 125 0 125 125 0 125 125 0 
125 125 0 125 125 0 125 125 0 125 125 0 125 125 0 
125 125 0 125 125 0 125 125 0 125 125 0 125 125 0 
125 125 0 125 125 0 125 125 0 125 125 0 125 125 0 
125 125 0 125 125 0 125 125 0 125 125 0 125 125 0 
125 125 0 125 125 0 125 125 0 125 125 0 125 125 0 
125 125 0 125 125 0 121 121 0 121 121 0 121 121 0 
121 121 0 121 121 0 121 121 0 121 121 0 121 121 0 
121 121 0 121 121 0 121 121 0 121 121 0 121 121 0 
121 121 0 121 121 0 121 121 0 121 121 0 121 121 0 
121 121 0 121 121 0 121 121 0 121 121 0 121 121 0 
121 121 0 121 121 0 121 121 0 121 121 0 121 121 0 
121 121 0 121 121 0 121 121 0 121 121 0 121 121 0 
121 121 0 121 121 0 121 121 0 121 121 0 121 121 0 
121 121 0 121 121 0 121 121 0 121 121 0 121 121 0 
121 121 0 121 121 0 121 121 0 121 121 0 121 121 0 
121 121 0 121 121 0 121 121 0 121 121 0 121 121 0 
121 121 0 121 121 0 121 121 0 121 121 0 121 121 0 
121 121 0 121 121 0 121 121 0 121 121 0 121 121 0 
121 121 0 117 117 0 117 117 0 117 117 0 117 117 0 
117 117 0 117 117 0 117 117 0 117 117 0 117 117 0 
117 117 0 117 117 0 117 117 0 117 117 0 117 117 0 
117 117 0 117 117 0 117 117 0 117 117 0 117 117 0 
117 117 0 117 117 0 117 117 0 117 117 0 117 117 0 
117 117 0 117 117 0 117 117 0 117 117 0 117 117 0 
117 117 0 117 117 0 117 117 0 117 117 0 117 117 0 
117 117 0 117 117 0 117 117 0 117 117 0 117 117 0 
117 117 0 117 117 0 117 117 0 117 117 0 117 117 0 
117 117 0 117 117 0 117 117 0 117 117 0 117 117 0 
117 117 0 117 117 0 117 117 0 117 117 0 117 117 0 
117 117 0 117 117 0 117 117 0 117 117 0 117 117 0 
117 117 0 117 117 0 117 117 0 117 117 0 117 117 0 
113 113 0 113 113 0 113 113 0 113 113 0 113 113 0 
113 113 0 113 113 0 113 113 0 113 113 0 113 113 0 
113 113 0 113 113 0 113 113 0 113 113 0 113 113 0 
113 113 0 113 113 0 113 113 0 113 113 0 113 113 0 
113 113 0 113 113 0 113 113 0 113 113 0 113 113 0 
113 113 0 113 113 0 113 113 0 113 113 0 113 113 0 
113 113 0 113 113 0 113 113 0 113 113 0 113 113 0 
113 113 0 113 113 0 113 113 0 113 113 0 113 113 0 
113 113 0 113 113 0 113 113 0 113 113 0 113 113 0 
113 113 0 113 113 0 113 113 0 113 113 0 113 113 0 
113 113 0 113 113 0 113 113 0 113 113 0 113 113 0 
113 113 0 113 113 0 113 113 0 113 113 0 113 113 0 
113 113 0 113 113 0 113 113 0 113 113 0 109 109 0 
109 109 0 109 109 0 109 109 0 109 109 0 109 109 0 
109 109 0 109 109 0 109 109 0 109 109 0 109 109 0 
109 109 0 109 109 0 109 109 0 109 109 0 109 109 0 
109 109 0 109 109 0 109 109 0 109 109 0 109 109 0 
109 109 0 109 109 0 109 109 0 109 109 0 109 109 0 
109 109 0 109 109 0 109 109 0 109 109 0 109 109 0 
109 109 0 109 109 0 109 109 0 109 109 0 109 109 0 
109 109 0 109 109 0 109 109 0 109 109 0 109 109 0 
109 109 0 109 109 0 109 109 0 109 109 0 109 109 0 
109 109 0 109 109 0 109 109 0 109 109 0 109 109 0 
109 109 0 109 109 0 109 109 0 109 109 0 109 109 0 
109 109 0 109 109 0 109 109 0 109 109 0 109 109 0 
109 109 0 109 109 0 109 109 0 105 105 0 105 105 0 
105 105 0 105 105 0 105 105 0 105 105 0 105 105 0 
105 105 0 105 105 0 105 105 0 105 105 0 105 105 0 
105 105 0 105 105 0 105 105 0 105 105 0 105 105 0 
105 105 0 105 105 0 105 105 0 105 105 0 105 105 0 
105 105 0 105 105 0 105 105 0 105 105 0 105 105 0 
105 105 0 105 105 0 105 105 0 105 105 0 105 105 0 
105 105 0 105 105 0 105 105 0 105 105 0 105 105 0 
105 105 0 105 105 0 105 105 0 105 105 0 105 105 0 
105 105 0 105 105 0 105 105 0 105 105 0 105 105 0 
105 105 0 105 105 0 105 105 0 105 105 0 105 105 0 
105 105 0 105 105 0 105 105 0 105 105 0 105 105 0 
105 105 0 105 105 0 105 105 0 105 105 0 105 105 0 
105 105 0 105 105 0 101 101 0 101 101 0 101 101 0 
101 101 0 101 101 0 101 101 0 101 101 0 101 101 0 
101 101 0 101 101 0 101 101 0 101 101 0 101 101 0 
101 101 0 101 101 0 101 101 0 101 101 0 101 101 0 
101 101 0 101 101 0 101 101 0 101 101 0 101 101 0 
101 101 0 101 101 0 101 101 0 101 101 0 101 101 0 
101 101 0 101 101 0 101 101 0 101 101 0 101 101 0 
101 101 0 101 101 0 101 101 0 101 101 0 101 101 0 
101 101 0 101 101 0 101 101 0 101 101 0 101 101 0 
101 101 0 101 101 0 101 101 0 101 101 0 101 101 0 
101 101 0 101 101 0 101 101 0 101 101 0 101 101 0 
101 101 0 101 101 0 101 101 0 101 101 0 101 101 0 
101 101 0 101 101 0 101 101 0 101 101 0 101 101 0 
101 101 0 97 97 0 97 97 0 97 97 0 97 97 0 
97 97 0 97 97 0 97 97 0 97 97 0 97 97 0 
97 97 0 97 97 0 97 97 0 97 97 0 97 97 0 
97 97 0 97 97 0 97 97 0 97 97 0 97 97 0 
97 97 0 97 97 0 97 97 0 97 97 0 97 97 0 
97 97 0 97 97 0 97 97 0 97 97 0 97 97 0 
97 97 0 97 97 0 97 97 0 97 97 0 97 97 0 
97 97 0 97 97 0 97 97 0 97 97 0 97 97 0 
97 97 0 97 97 0 97 97 0 97 97 0 97 97 0 
97 97 0 97 97 0 97 97 0 97 97 0 97 97 0 
97 97 0 97 97 0 97 97 0 97 97 0 97 97 0 
97 97 0 97 97 0 97 97 0 97 97 0 97 97 0 
97 97 0 97 97 0 97 97 0 97 97 0 97 97 0 
93 93 0 93 93 0 93 93 0 93 93 0 93 93 0 
93 93 0 93 93 0 93 93 0 93 93 0 93 93 0 
93 93 0 93 93 0 93 93 0 93 93 0 93 93 0 
93 93 0 93 93 0 93 93 0 93 93 0 93 93 0 
93 93 0 93 93 0 93 93 0 93 93 0 93 93 0 
93 93 0 93 93 0 93 93 0 93 93 0 93 93 0 
93 93 0 93 93 0 93 93 0 93 93 0 93 93 0 
93 93 0 93 93 0 93 93 0 93 93 0 93 93 0 
93 93 0 93 93 0 93 93 0 93 93 0 93 93 0 
93 93 0 93 93 0 93 93 0 93 93 0 93 93 0 
93 93 0 93 93 0 93 93 0 93 93 0 93 93 0 
93 93 0 93 93 0 93 93 0 93 93 0 93 93 0 
93 93 0 93 93 0 93 93 0 93 93 0 89 89 0 
89 89 0 89 89 0 89 89 0 89 89 0 89 89 0 
89 89 0 89 89 0 89 89 0 89 89 0 89 89 0 
89 89 0 89 89 0 89 89 0 89 89 0 89 89 0 
89 89 0 89 89 0 89 89 0 89 89 0 89 89 0 
89 89 0 89 89 0 89 89 0 89 89 0 89 89 0 
89 89 0 89 89 0 89 89 0 89 89 0 89 89 0 
89 89 0 89 89 0 89 89 0 89 89 0 89 89 0 
89 89 0 89 89 0 89 89 0 89 89 0 89 89 0 
89 89 0 89 89 0 89 89 0 89 89 0 89 89 0 
89 89 0 89 89 0 89 89 0 89 89 0 89 89 0 
89 89 0 89 89 0 89 89 0 89 89 0 89 89 0 
89 89 0 89 89 0 89 89 0 89 89 0 89 89 0 
89 89 0 89 89 0 89 89 0 85 85 0 85 85 0 
85 85 0 85 85 0 85 85 0 85 85 0 85 85 0 
85 85 0 85 85 0 85 85 0 85 85 0 85 85 0 
85 85 0 85 85 0 85 85 0 85 85 0 85 85 0 
85 85 0 85 85 0 85 85 0 85 85 0 85 85 0 
85 85 0 85 85 0 85 85 0 85 85 0 85 85 0 
85 85 0 85 85 0 85 85 0 85 85 0 85 85 0 
85 85 0 85 85 0 85 85 0 85 85 0 85 85 0 
85 85 0 85 85 0 85 85 0 85 85 0 85 85 0 
85 85 0 85 85 0 85 85 0 85 85 0 85 85 0 
85 85 0 85 85 0 85 85 0 85 85 0 85 85 0 
85 85 0 85 85 0 85 85 0 85 85 0 85 85 0 
85 85 0 85 85 0 85 85 0 85 85 0 85 85 0 
85 85 0 85 85 0 81 81 0 81 81 0 81 81 0 
81 81 0 81 81 0 81 81 0 81 81 0 81 81 0 
81 81 0 81 81 0 81 81 0 81 81 0 81 81 0 
81 81 0 81 81 0 81 81 0 81 81 0 81 81 0 
81 81 0 81 81 0 81 81 0 81 81 0 81 81 0 
81 81 0 81 81 0 81 81 0 81 81 0 81 81 0 
81 81 0 81 81 0 81 81 0 81 81 0 81 81 0 
81 81 0 81 81 0 81 81 0 81 81 0 81 81 0 
81 81 0 81 81 0 81 81 0 81 81 0 81 81 0 
81 81 0 81 81 0 81 81 0 81 81 0 81 81 0 
81 81 0 81 81 0 81 81 0 81 81 0 81 81 0 
81 81 0 81 81 0 81 81 0 81 81 0 81 81 0 
81 81 0 81 81 0 81 81 0 81 81 0 81 81 0 
81 81 0 77 77 0 77 77 0 77 77 0 77 77 0 
77 77 0 77 77 0 77 77 0 77 77 0 77 77 0 
77 77 0 77 77 0 77 77 0 77 77 0 77 77 0 
77 77 0 77 77 0 77 77 0 77 77 0 77 77 0 
77 77 0 77 77 0 77 77 0 77 77 0 77 77 0 
77 77 0 77 77 0 77 77 0 77 77 0 77 77 0 
77 77 0 77 77 0 77 77 0 77 77 0 77 77 0 
77 77 0 77 77 0 77 77 0 77 77 0 77 77 0 
77 77 0 77 77 0 77 77 0 77 77 0 77 77 0 
77 77 0 77 77 0 77 77 0 77 77 0 77 77 0 
77 77 0 77 77 0 77 77 0 77 77 0 77 77 0 
77 77 0 77 77 0 77 77 0 77 77 0 77 77 0 
77 77 0 77 77 0 77 77 0 77 77 0 77 77 0 
73 73 0 73 73 0 73 73 0 73 73 0 73 73 0 
73 73 0 73 73 0 73 73 0 73 73 0 73 73 0 
73 73 0 73 73 0 73 73 0 73 73 0 73 73 0 
73 73 0 73 73 0 73 73 0 73 73 0 73 73 0 
73 73 0 73 73 0 73 73 0 73 73 0 73 73 0 
73 73 0 73 73 0 73 73 0 73 73 0 73 73 0 
73 73 0 73 73 0 73 73 0 73 73 0 73 73 0 
73 73 0 73 73 0 73 73 0 73 73 0 73 73 0 
73 73 0 73 73 0 73 73 0 73 73 0 73 73 0 
73 73 0 73 73 0 73 73 0 73 73 0 73 73 0 
73 73 0 73 73 0 73 73 0 73 73 0 73 73 0 
73 73 0 73 73 0 73 73 0 73 73 0 73 73 0 
73 73 0 73 73 0 73 73 0 73 73 0 69 69 0 
69 69 0 69 69 0 69 69 0 69 69 0 69 69 0 
69 69 0 69 69 0 69 69 0 69 69 0 69 69 0 
69 69 0 69 69 0 69 69 0 69 69 0 69 69 0 
69 69 0 69 69 0 69 69 0 69 69 0 69 69 0 
69 69 0 69 69 0 69 69 0 69 69 0 69 69 0 
69 69 0 69 69 0 69 69 0 69 69 0 69 69 0 
69 69 0 69 69 0 69 69 0 69 69 0 69 69 0 
69 69 0 69 69 0 69 69 0 69 69 0 69 69 0 
69 69 0 69 69 0 69 69 0 69 69 0 69 69 0 
69 69 0 69 69 0 69 69 0 69 69 0 69 69 0 
69 69 0 69 69 0 69 69 0 69 69 0 69 69 0 
69 69 0 69 69 0 69 69 0 69 69 0 69 69 0 
69 69 0 69 69 0 69 69 0 65 65 0 65 65 0 
65 65 0 65 65 0 65 65 0 65 65 0 65 65 0 
65 65 0 65 65 0 65 65 0 65 65 0 65 65 0 
65 65 0 65 65 0 65 65 0 65 65 0 65 65 0 
65 65 0 65 65 0 65 65 0 65 65 0 65 65 0 
65 65 0 65 65 0 65 65 0 65 65 0 65 65 0 
65 65 0 65 65 0 65 65 0 65 65 0 65 65 0 
65 65 0 65 65 0 65 65 0 65 65 0 65 65 0 
65 65 0 65 65 0 65 65 0 65 65 0 65 65 0 
65 65 0 65 65 0 65 65 0 65 65 0 65 65 0 
65 65 0 65 65 0 65 65 0 65 65 0 65 65 0 
65 65 0 65 65 0 65 65 0 65 65 0 65 65 0 
65 65 0 65 65 0 65 65 0 65 65 0 65 65 0 
65 65 0 65 65 0 60 60 0 60 60 0 60 60 0 
60 60 0 60 60 0 60 60 0 60 60 0 60 60 0 
60 60 0 60 60 0 60 60 0 60 60 0 60 60 0 
60 60 0 60 60 0 60 60 0 60 60 0 60 60 0 
60 60 0 60 60 0 60 60 0 60 60 0 60 60 0 
60 60 0 60 60 0 60 60 0 60 60 0 60 60 0 
60 60 0 60 60 0 60 60 0 60 60 0 60 60 0 
60 60 0 60 60 0 60 60 0 60 60 0 60 60 0 
60 60 0 60 60 0 60 60 0 60 60 0 60 60 0 
60 60 0 60 60 0 60 60 0 60 60 0 60 60 0 
60 60 0 60 60 0 60 60 0 60 60 0 60 60 0 
60 60 0 60 60 0 60 60 0 60 60 0 60 60 0 
60 60 0 60 60 0 60 60 0 60 60 0 60 60 0 
60 60 0 56 56 0 56 56 0 56 56 0 56 56 0 
56 56 0 56 56 0 56 56 0 56 56 0 56 56 0 
56 56 0 56 56 0 56 56 0 56 56 0 56 56 0 
56 56 0 56 56 0 56 56 0 56 56 0 56 56 0 
56 56 0 56 56 0 56 56 0 56 56 0 56 56 0 
56 56 0 56 56 0 56 56 0 56 56 0 56 56 0 
56 56 0 56 56 0 56 56 0 56 56 0 56 56 0 
56 56 0 56 56 0 56 56 0 56 56 0 56 56 0 
56 56 0 56 56 0 56 56 0 56 56 0 56 56 0 
56 56 0 56 56 0 56 56 0 56 56 0 56 56 0 
56 56 0 56 56 0 56 56 0 56 56 0 56 56 0 
56 56 0 56 56 0 56 56 0 56 56 0 56 56 0 
56 56 0 56 56 0 56 56 0 56 56 0 56 56 0 
52 52 0 52 52 0 52 52 0 52 52 0 52 52 0 
52 52 0 52 52 0 52 52 0 52 52 0 52 52 0 
52 52 0 52 52 0 52 52 0 52 52 0 52 52 0 
52 52 0 52 52 0 52 52 0 52 52 0 52 52 0 
52 52 0 52 52 0 52 52 0 52 52 0 52 52 0 
52 52 0 52 52 0 52 52 0 52 52 0 52 52 0 
52 52 0 52 52 0 52 52 0 52 52 0 52 52 0 
52 52 0 52 52 0 52 52 0 52 52 0 52 52 0 
52 52 0 52 52 0 52 52 0 52 52 0 52 52 0 
52 52 0 52 52 0 52 52 0 52 52 0 52 52 0 
52 52 0 52 52 0 52 52 0 52 52 0 52 52 0 
52 52 0 52 52 0 52 52 0 52 52 0 52 52 0 
52 52 0 52 52 0 52 52 0 52 52 0 48 48 0 
48 48 0 48 48 0 48 48 0 48 48 0 48 48 0 
48 48 0 48 48 0 48 48 0 48 48 0 48 48 0 
48 48 0 48 48 0 48 48 0 48 48 0 48 48 0 
48 48 0 48 48 0 48 48 0 48 48 0 48 48 0 
48 48 0 48 48 0 48 48 0 48 48 0 48 48 0 
48 48 0 48 48 0 48 48 0 48 48 0 48 48 0 
48 48 0 48 48 0 48 48 0 48 48 0 48 48 0 
48 48 0 48 48 0 48 48 0 48 48 0 48 48 0 
48 48 0 48 48 0 48 48 0 48 48 0 48 48 0 
48 48 0 48 48 0 48 48 0 48 48 0 48 48 0 
48 48 0 48 48 0 48 48 0 48 48 0 48 48 0 
48 48 0 48 48 0 48 48 0 48 48 0 48 48 0 
48 48 0 48 48 0 48 48 0 44 44 0 44 44 0 
44 44 0 44 44 0 44 44 0 44 44 0 44 44 0 
44 44 0 44 44 0 44 44 0 44 44 0 44 44 0 
44 44 0 44 44 0 44 44 0 44 44 0 44 44 0 
44 44 0 44 44 0 44 44 0 44 44 0 44 44 0 
44 44 0 44 44 0 44 44 0 44 44 0 44 44 0 
44 44 0 44 44 0 44 44 0 44 44 0 44 44 0 
44 44 0 44 44 0 44 44 0 44 44 0 44 44 0 
44 44 0 44 44 0 44 44 0 44 44 0 44 44 0 
44 44 0 44 44 0 44 44 0 44 44 0 44 44 0 
44 44 0 44 44 0 44 44 0 44 44 0 44 44 0 
44 44 0 44 44 0 44 44 0 44 44 0 44 44 0 
44 44 0 44 44 0 44 44 0 44 44 0 44 44 0 
44 44 0 44 44 0 40 40 0 40 40 0 40 40 0 
40 40 0 40 40 0 40 40 0 40 40 0 40 40 0 
40 40 0 40 40 0 40 40 0 40 40 0 40 40 0 
40 40 0 40 40 0 40 40 0 40 40 0 40 40 0 
40 40 0 40 40 0 40 40 0 40 40 0 40 40 0 
40 40 0 40 40 0 40 40 0 40 40 0 40 40 0 
40 40 0 40 40 0 40 40 0 40 40 0 40 40 0 
40 40 0 40 40 0 40 40 0 40 40 0 40 40 0 
40 40 0 40 40 0 40 40 0 40 40 0 40 40 0 
40 40 0 40 40 0 40 40 0 40 40 0 40 40 0 
40 40 0 40 40 0 40 40 0 40 40 0 40 40 0 
40 40 0 40 40 0 40 40 0 40 40 0 40 40 0 
40 40 0 40 40 0 40 40 0 40 40 0 40 40 0 
40 40 0 36 36 0 36 36 0 36 36 0 36 36 0 
36 36 0 36 36 0 36 36 0 36 36 0 36 36 0 
36 36 0 36 36 0 36 36 0 36 36 0 36 36 0 
36 36 0 36 36 0 36 36 0 36 36 0 36 36 0 
36 36 0 36 36 0 36 36 0 36 36 0 36 36 0 
36 36 0 36 36 0 36 36 0 36 36 0 36 36 0 
36 36 0 36 36 0 36 36 0 36 36 0 36 36 0 
36 36 0 36 36 0 36 36 0 36 36 0 36 36 0 
36 36 0 36 36 0 36 36 0 36 36 0 36 36 0 
36 36 0 36 36 0 36 36 0 36 36 0 36 36 0 
36 36 0 36 36 0 36 36 0 36 36 0 36 36 0 
36 36 0 36 36 0 36 36 0 36 36 0 36 36 0 
36 36 0 36 36 0 36 36 0 36 36 0 36 36 0 
32 32 0 32 32 0 32 32 0 32 32 0 32 32 0 
32 32 0 32 32 0 32 32 0 32 32 0 32 32 0 
32 32 0 32 32 0 32 32 0 32 32 0 32 32 0 
32 32 0 32 32 0 32 32 0 32 32 0 32 32 0 
32 32 0 32 32 0 32 32 0 32 32 0 32 32 0 
32 32 0 32 32 0 32 32 0 32 32 0 32 32 0 
32 32 0 32 32 0 32 32 0 32 32 0 32 32 0 
32 32 0 32 32 0 32 32 0 32 32 0 32 32 0 
32 32 0 32 32 0 32 32 0 32 32 0 32 32 0 
32 32 0 32 32 0 32 32 0 32 32 0 32 32 0 
32 32 0 32 32 0 32 32 0 32 32 0 32 32 0 
32 32 0 32 32 0 32 32 0 32 32 0 32 32 0 
32 32 0 32 32 0 32 32 0 32 32 0 28 28 0 
28 28 0 28 28 0 28 28 0 28 28 0 28 28 0 
28 28 0 28 28 0 28 28 0 28 28 0 28 28 0 
28 28 0 28 28 0 28 28 0 28 28 0 28 28 0 
28 28 0 28 28 0 28 28 0 28 28 0 28 28 0 
28 28 0 28 28 0 28 28 0 28 28 0 28 28 0 
28 28 0 28 28 0 28 28 0 28 28 0 28 28 0 
28 28 0 28 28 0 28 28 0 28 28 0 28 28 0 
28 28 0 28 28 0 28 28 0 28 28 0 28 28 0 
28 28 0 28 28 0 28 28 0 28 28 0 28 28 0 
28 28 0 28 28 0 28 28 0 28 28 0 28 28 0 
28 28 0 28 28 0 28 28 0 28 28 0 28 28 0 
28 28 0 28 28 0 28 28 0 28 28 0 28 28 0 
28 28 0 28 28 0 28 28 0 24 24 0 24 24 0 
24 24 0 24 24 0 24 24 0 24 24 0 24 24 0 
24 24 0 24 24 0 24 24 0 24 24 0 24 24 0 
24 24 0 24 24 0 24 24 0 24 24 0 24 24 0 
24 24 0 24 24 0 24 24 0 24 24 0 24 24 0 
24 24 0 24 24 0 24 24 0 24 24 0 24 24 0 
24 24 0 24 24 0 24 24 0 24 24 0 24 24 0 
24 24 0 24 24 0 24 24 0 24 24 0 24 24 0 
24 24 0 24 24 0 24 24 0 24 24 0 24 24 0 
24 24 0 24 24 0 24 24 0 24 24 0 24 24 0 
24 24 0 24 24 0 24 24 0 24 24 0 24 24 0 
24 24 0 24 24 0 24 24 0 24 24 0 24 24 0 
24 24 0 24 24 0 24 24 0 24 24 0 24 24 0 
24 24 0 24 24 0 20 20 0 20 20 0 20 20 0 
20 20 0 20 20 0 20 20 0 20 20 0 20 20 0 
20 20 0 20 20 0 20 20 0 20 20 0 20 20 0 
20 20 0 20 20 0 20 20 0 20 20 0 20 20 0 
20 20 0 20 20 0 20 20 0 20 20 0 20 20 0 
20 20 0 20 20 0 20 20 0 20 20 0 20 20 0 
20 20 0 20 20 0 20 20 0 20 20 0 20 20 0 
20 20 0 20 20 0 20 20 0 20 20 0 20 20 0 
20 20 0 20 20 0 20 20 0 20 20 0 20 20 0 
20 20 0 20 20 0 20 20 0 20 20 0 20 20 0 
20 20 0 20 20 0 20 20 0 20 20 0 20 20 0 
20 20 0 20 20 0 20 20 0 20 20 0 20 20 0 
20 20 0 20 20 0 20 20 0 20 20 0 20 20 0 
20 20 0 16 16 0 16 16 0 16 16 0 16 16 0 
16 16 0 16 16 0 16 16 0 16 16 0 16 16 0 
16 16 0 16 16 0 16 16 0 16 16 0 16 16 0 
16 16 0 16 16 0 16 16 0 16 16 0 16 16 0 
16 16 0 16 16 0 16 16 0 16 16 0 16 16 0 
16 16 0 16 16 0 16 16 0 16 16 0 16 16 0 
16 16 0 16 16 0 16 16 0 16 16 0 16 16 0 
16 16 0 16 16 0 16 16 0 16 16 0 16 16 0 
16 16 0 16 16 0 16 16 0 16 16 0 16 16 0 
16 16 0 16 16 0 16 16 0 16 16 0 16 16 0 
16 16 0 16 16 0 16 16 0 16 16 0 16 16 0 
16 16 0 16 16 0 16 16 0 16 16 0 16 16 0 
16 16 0 16 16 0 16 16 0 16 16 0 16 16 0 
12 12 0 12 12 0 12 12 0 12 12 0 12 12 0 
12 12 0 12 12 0 12 12 0 12 12 0 12 12 0 
12 12 0 12 12 0 12 12 0 12 12 0 12 12 0 
12 12 0 12 12 0 12 12 0 12 12 0 12 12 0 
12 12 0 12 12 0 12 12 0 12 12 0 12 12 0 
12 12 0 12 12 0 12 12 0 12 12 0 12 12 0 
12 12 0 12 12 0 12 12 0 12 12 0 12 12 0 
12 12 0 12 12 0 12 12 0 12 12 0 12 12 0 
12 12 0 12 12 0 12 12 0 12 12 0 12 12 0 
12 12 0 12 12 0 12 12 0 12 12 0 12 12 0 
12 12 0 12 12 0 12 12 0 12 12 0 12 12 0 
12 12 0 12 12 0 12 12 0 12 12 0 12 12 0 
12 12 0 12 12 0 12 12 0 12 12 0 8 8 0 
8 8 0 8 8 0 8 8 0 8 8 0 8 8 0 
8 8 0 8 8 0 8 8 0 8 8 0 8 8 0 
8 8 0 8 8 0 8 8 0 8 8 0 8 8 0 
8 8 0 8 8 0 8 8 0 8 8 0 8 8 0 
8 8 0 8 8 0 8 8 0 8 8 0 8 8 0 
8 8 0 8 8 0 8 8 0 8 8 0 8 8 0 
8 8 0 8 8 0 8 8 0 8 8 0 8 8 0 
8 8 0 8 8 0 8 8 0 8 8 0 8 8 0 
8 8 0 8 8 0 8 8 0 8 8 0 8 8 0 
8 8 0 8 8 0 8 8 0 8 8 0 8 8 0 
8 8 0 8 8 0 8 8 0 8 8 0 8 8 0 
8 8 0 8 8 0 8 8 0 8 8 0 8 8 0 
8 8 0 8 8 0 8 8 0 4 4 0 4 4 0 
4 4 0 4 4 0 4 4 0 4 4 0 4 4 0 
4 4 0 4 4 0 4 4 0 4 4 0 4 4 0 
4 4 0 4 4 0 4 4 0 4 4 0 4 4 0 
4 4 0 4 4 0 4 4 0 4 4 0 4 4 0 
4 4 0 4 4 0 4 4 0 4 4 0 4 4 0 
4 4 0 4 4 0 4 4 0 4 4 0 4 4 0 
4 4 0 4 4 0 4 4 0 4 4 0 4 4 0 
4 4 0 4 4 0 4 4 0 4 4 0 4 4 0 
4 4 0 4 4 0 4 4 0 4 4 0 4 4 0 
4 4 0 4 4 0 4 4 0 4 4 0 4 4 0 
4 4 0 4 4 0 4 4 0 4 4 0 4 4 0 
4 4 0 4 4 0 4 4 0 4 4 0 4 4 0 
4 4 0 4 4 0 0 0 0 0 0 0 0 0 0 
0 0 0 0 0 0 0 0 0 0 0 0 0 0 0 
0 0 0 0 0 0 0 0 0 0 0 0 0 0 0 
0 0 0 0 0 0 0 0 0 0 0 0 0 0 0 
0 0 0 0 0 0 0 0 0 0 0 0 0 0 0 
0 0 0 0 0 0 0 0 0 0 0 0 0 0 0 
0 0 0 0 0 0 0 0 0 0 0 0 0 0 0 
0 0 0 0 0 0 0 0 0 0 0 0 0 0 0 
0 0 0 0 0 0 0 0 0 0 0 0 0 0 0 
0 0 0 0 0 0 0 0 0 0 0 0 0 0 0 
0 0 0 0 0 0 0 0 0 0 0 0 0 0 0 
0 0 0 0 0 0 0 0 0 0 0 0 0 0 0 
0 0 0 0 0 0 0 0 0 0 0 0 0 0 0 
0 0 0 